<svg width="133" height="46" viewBox="0 0 133 46" fill="none" xmlns="http://www.w3.org/2000/svg">
<path d="M0.888707 2.76363H9.55483L18.7078 25.0943H19.0973L28.2503 2.76363H36.9164V36H30.1004V14.3672H29.8245L21.2233 35.8377H16.5819L7.98065 14.286H7.70476V36H0.888707V2.76363ZM46.8443 45.3477C45.968 45.3477 45.1457 45.2774 44.3776 45.1368C43.6202 45.0069 42.9927 44.8392 42.495 44.6337L44.053 39.4729C44.8644 39.7218 45.5947 39.857 46.2439 39.8787C46.9038 39.9003 47.4718 39.7488 47.9479 39.4243C48.4347 39.0997 48.8296 38.5479 49.1326 37.7689L49.5383 36.7141L40.5963 11.0727H47.8667L53.0274 29.3787H53.2871L58.4965 11.0727H65.8157L56.1271 38.694C55.6619 40.0355 55.029 41.204 54.2284 42.1994C53.4386 43.2055 52.4378 43.9791 51.2261 44.5201C50.0143 45.0718 48.5537 45.3477 46.8443 45.3477ZM69.4833 36V2.76363H82.7909C85.236 2.76363 87.2754 3.12608 88.9091 3.85096C90.5428 4.57584 91.7707 5.58202 92.593 6.86949C93.4153 8.14615 93.8264 9.61755 93.8264 11.2837C93.8264 12.582 93.5667 13.7234 93.0474 14.708C92.5281 15.6817 91.814 16.4823 90.9052 17.1098C90.0072 17.7265 88.9794 18.1647 87.8218 18.4243V18.7489C89.0876 18.803 90.2723 19.16 91.3759 19.82C92.4902 20.48 93.3936 21.405 94.086 22.5951C94.7785 23.7744 95.1247 25.1809 95.1247 26.8146C95.1247 28.5781 94.6865 30.1523 93.8102 31.5371C92.9446 32.9111 91.6626 33.9985 89.964 34.7991C88.2654 35.5997 86.1718 36 83.6834 36H69.4833ZM76.5104 30.255H82.2391C84.1974 30.255 85.6255 29.8818 86.5235 29.1353C87.4215 28.3779 87.8705 27.3717 87.8705 26.1167C87.8705 25.1971 87.6487 24.3857 87.2051 23.6824C86.7615 22.9792 86.1286 22.4274 85.3063 22.0271C84.4949 21.6268 83.5266 21.4266 82.4014 21.4266H76.5104V30.255ZM76.5104 16.6716H81.7198C82.6827 16.6716 83.5374 16.5039 84.2839 16.1685C85.0413 15.8223 85.6363 15.3355 86.0691 14.708C86.5127 14.0804 86.7344 13.3285 86.7344 12.4522C86.7344 11.2512 86.3071 10.2829 85.4524 9.54723C84.6085 8.81153 83.4076 8.44368 81.8496 8.44368H76.5104V16.6716ZM99.5673 36V11.0727H106.481V36H99.5673ZM103.04 7.85944C102.012 7.85944 101.131 7.51864 100.395 6.83704C99.6701 6.14461 99.3076 5.31695 99.3076 4.35405C99.3076 3.40196 99.6701 2.58512 100.395 1.90352C101.131 1.21109 102.012 0.864877 103.04 0.864877C104.068 0.864877 104.944 1.21109 105.669 1.90352C106.405 2.58512 106.773 3.40196 106.773 4.35405C106.773 5.31695 106.405 6.14461 105.669 6.83704C104.944 7.51864 104.068 7.85944 103.04 7.85944ZM111.889 36V31.8779L124.093 16.769V16.5905H112.311V11.0727H132.418V15.5681L120.961 30.3037V30.4822H132.84V36H111.889Z" fill="url(#paint0_linear_122_1214)"/>
<defs>
<linearGradient id="paint0_linear_122_1214" x1="-2" y1="19" x2="144" y2="19" gradientUnits="userSpaceOnUse">
<stop stop-color="#00AEFF"/>
<stop offset="1" stop-color="#0084FF"/>
</linearGradient>
</defs>
</svg>
