<svg width="71" height="26" viewBox="0 0 71 26" fill="none" xmlns="http://www.w3.org/2000/svg">
<path d="M2.38965 1.51562H5.61426L10.3623 15.0869L15.1104 1.51562H18.335L11.6572 20H9.06738L2.38965 1.51562ZM0.650391 1.51562H3.8623L4.44629 14.7441V20H0.650391V1.51562ZM16.8623 1.51562H20.0869V20H16.2783V14.7441L16.8623 1.51562ZM27.2725 18.4512L30.916 6.26367H34.8389L29.3164 22.0693C29.1979 22.4163 29.0371 22.7887 28.834 23.1865C28.6393 23.5843 28.3727 23.9609 28.0342 24.3164C27.7041 24.6803 27.2852 24.9766 26.7773 25.2051C26.278 25.4336 25.6644 25.5479 24.9365 25.5479C24.5895 25.5479 24.306 25.5267 24.0859 25.4844C23.8659 25.4421 23.6035 25.3828 23.2988 25.3066V22.6279C23.3919 22.6279 23.4893 22.6279 23.5908 22.6279C23.6924 22.6364 23.7897 22.6406 23.8828 22.6406C24.3652 22.6406 24.7588 22.5856 25.0635 22.4756C25.3682 22.3656 25.6136 22.1963 25.7998 21.9678C25.986 21.7477 26.1341 21.46 26.2441 21.1045L27.2725 18.4512ZM25.749 6.26367L28.7324 16.2168L29.2529 20.0889L26.7646 20.3555L21.8262 6.26367H25.749ZM43.7637 11.8877H39.0156L38.9902 9.27246H42.9766C43.679 9.27246 44.2546 9.18359 44.7031 9.00586C45.1517 8.81966 45.486 8.55306 45.7061 8.20605C45.9346 7.85059 46.0488 7.41895 46.0488 6.91113C46.0488 6.33561 45.9388 5.87012 45.7188 5.51465C45.5072 5.15918 45.1729 4.90104 44.7158 4.74023C44.2673 4.57943 43.6875 4.49902 42.9766 4.49902H40.3359V20H36.5273V1.51562H42.9766C44.0514 1.51562 45.012 1.61719 45.8584 1.82031C46.7132 2.02344 47.4368 2.33236 48.0293 2.74707C48.6217 3.16178 49.0745 3.68652 49.3877 4.32129C49.7008 4.94759 49.8574 5.69238 49.8574 6.55566C49.8574 7.31738 49.6839 8.01986 49.3369 8.66309C48.9984 9.30632 48.4609 9.83105 47.7246 10.2373C46.9967 10.6436 46.0446 10.8678 44.8682 10.9102L43.7637 11.8877ZM43.5986 20H37.9746L39.46 17.0293H43.5986C44.2673 17.0293 44.8132 16.9235 45.2363 16.7119C45.6595 16.4919 45.9727 16.1956 46.1758 15.8232C46.3789 15.4508 46.4805 15.0234 46.4805 14.541C46.4805 13.9993 46.3874 13.5296 46.2012 13.1318C46.0234 12.734 45.7357 12.4294 45.3379 12.2178C44.9401 11.9977 44.4154 11.8877 43.7637 11.8877H40.0947L40.1201 9.27246H44.6904L45.5664 10.3008C46.6921 10.2839 47.5977 10.4827 48.2832 10.8975C48.9772 11.3037 49.4808 11.8327 49.7939 12.4844C50.1156 13.1361 50.2764 13.8343 50.2764 14.5791C50.2764 15.764 50.0182 16.7627 49.502 17.5752C48.9857 18.3792 48.2282 18.9844 47.2295 19.3906C46.2393 19.7969 45.029 20 43.5986 20ZM56.7637 6.26367V20H53.0947V6.26367H56.7637ZM52.8662 2.68359C52.8662 2.15039 53.0524 1.71029 53.4248 1.36328C53.7972 1.01628 54.2965 0.842773 54.9229 0.842773C55.5407 0.842773 56.0358 1.01628 56.4082 1.36328C56.7891 1.71029 56.9795 2.15039 56.9795 2.68359C56.9795 3.2168 56.7891 3.6569 56.4082 4.00391C56.0358 4.35091 55.5407 4.52441 54.9229 4.52441C54.2965 4.52441 53.7972 4.35091 53.4248 4.00391C53.0524 3.6569 52.8662 3.2168 52.8662 2.68359ZM70.7158 17.1436V20H60.2803V17.1436H70.7158ZM70.5127 8.37109L61.7529 20H59.3027V17.8291L68.0244 6.26367H70.5127V8.37109ZM69.2178 6.26367V9.13281H59.5059V6.26367H69.2178Z" fill="#20A6FE"/>
</svg>
